<svg version="1.1" viewBox="0.0 0.0 200.0 200.0" fill="none" stroke="none" stroke-linecap="square" stroke-miterlimit="10" xmlns:xlink="http://www.w3.org/1999/xlink" xmlns="http://www.w3.org/2000/svg"><clipPath id="p.0"><path d="m0 0l200.0 0l0 200.0l-200.0 0l0 -200.0z" clip-rule="nonzero"/></clipPath><g clip-path="url(#p.0)"><path fill="#000000" fill-opacity="0.0" d="m0 0l200.0 0l0 200.0l-200.0 0z" fill-rule="evenodd"/><defs><linearGradient id="p.1" gradientUnits="userSpaceOnUse" gradientTransform="matrix(0.0 11.8277222289112 -11.8277222289112 0.0 0.0 0.0)" spreadMethod="pad" x1="3.57304516198689" y1="-14.368645457490379" x2="3.573002253901002" y2="-2.540923228657008"><stop offset="0.0" stop-color="#00c1ff"/><stop offset="0.82" stop-color="#4d00ff"/><stop offset="1.0" stop-color="#ff00ff"/></linearGradient></defs><path fill="url(#p.1)" d="m30.053335 42.260986l139.89447 76.13619l-139.89447 76.13619z" fill-rule="evenodd"/><defs><linearGradient id="p.2" gradientUnits="userSpaceOnUse" gradientTransform="matrix(0.0 12.857247435565581 -12.857247435565581 0.0 0.0 0.0)" spreadMethod="pad" x1="0.42462075189327836" y1="-14.206405116134924" x2="0.4245742025079436" y2="-1.3491576806536087"><stop offset="0.0" stop-color="#00c1ff"/><stop offset="0.75" stop-color="#00c1ff"/><stop offset="1.0" stop-color="#ff00ff"/></linearGradient></defs><path fill="url(#p.2)" d="m17.346455 5.4594536l165.30823 82.64314l-165.30823 82.64316z" fill-rule="evenodd"/><path fill="#000000" fill-opacity="0.0" d="m17.346455 5.4594536l0 0" fill-rule="evenodd"/><path stroke="#595959" stroke-width="1.0" stroke-linejoin="round" stroke-linecap="butt" d="m17.346455 5.4594536l0 0" fill-rule="evenodd"/><path fill="#000000" fill-opacity="0.0" d="m17.346455 5.4594536l0 0" fill-rule="evenodd"/><path stroke="#595959" stroke-width="1.0" stroke-linejoin="round" stroke-linecap="butt" d="m17.346455 5.4594536l0 0" fill-rule="evenodd"/><path fill="#000000" fill-opacity="0.0" d="m17.346455 170.74576l12.68313 23.795517" fill-rule="evenodd"/><path stroke="#ff00ff" stroke-width="1.0" stroke-linejoin="round" stroke-linecap="butt" d="m17.346455 170.74576l12.68313 23.795517" fill-rule="evenodd"/><path fill="#000000" fill-opacity="0.0" d="m182.65468 88.1026l-12.683136 30.30249" fill-rule="evenodd"/><path stroke="#00c1ff" stroke-width="1.0" stroke-linejoin="round" stroke-linecap="butt" d="m182.65468 88.1026l-12.683136 30.30249" fill-rule="evenodd"/></g></svg>
