<svg version="1.1" viewBox="0.0 0.0 960.0 302.3622047244094" fill="none" stroke="none" stroke-linecap="square" stroke-miterlimit="10" xmlns:xlink="http://www.w3.org/1999/xlink" xmlns="http://www.w3.org/2000/svg"><clipPath id="g8f796256e8_0_0.0"><path d="m0 0l960.0 0l0 302.3622l-960.0 0l0 -302.3622z" clip-rule="nonzero"/></clipPath><g clip-path="url(#g8f796256e8_0_0.0)"><path fill="#000000" fill-opacity="0.0" d="m0 0l960.0 0l0 302.3622l-960.0 0z" fill-rule="evenodd"/><defs><linearGradient id="g8f796256e8_0_0.1" gradientUnits="userSpaceOnUse" gradientTransform="matrix(0.0 14.721898503371701 -14.721898503371701 0.0 0.0 0.0)" spreadMethod="pad" x1="4.177860189399684" y1="-16.42287216312825" x2="4.17780691326908" y2="-1.7009736598529466"><stop offset="0.0" stop-color="#00c1ff"/><stop offset="0.82" stop-color="#4d00ff"/><stop offset="1.0" stop-color="#ff00ff"/></linearGradient></defs><path fill="url(#g8f796256e8_0_0.1)" d="m25.041563 61.50603l216.73344 118.2484l-216.73344 118.24838z" fill-rule="evenodd"/><defs><linearGradient id="g8f796256e8_0_0.2" gradientUnits="userSpaceOnUse" gradientTransform="matrix(0.0 16.003343458148372 -16.003343458148372 0.0 0.0 0.0)" spreadMethod="pad" x1="0.2717529484729531" y1="-16.337976530949856" x2="0.2716950292417831" y2="-0.33463307290629435"><stop offset="0.0" stop-color="#00c1ff"/><stop offset="0.75" stop-color="#00c1ff"/><stop offset="1.0" stop-color="#ff00ff"/></linearGradient></defs><path fill="url(#g8f796256e8_0_0.2)" d="m5.355248 4.348956l256.10608 128.35446l-256.10608 128.35445z" fill-rule="evenodd"/><path fill="#000000" fill-opacity="0.0" d="m5.355248 4.348956l0 0" fill-rule="evenodd"/><path stroke="#595959" stroke-width="1.0" stroke-linejoin="round" stroke-linecap="butt" d="m5.355248 4.348956l0 0" fill-rule="evenodd"/><path fill="#000000" fill-opacity="0.0" d="m5.355248 4.348956l0 0" fill-rule="evenodd"/><path stroke="#595959" stroke-width="1.0" stroke-linejoin="round" stroke-linecap="butt" d="m5.355248 4.348956l0 0" fill-rule="evenodd"/><path fill="#000000" fill-opacity="0.0" d="m5.355248 261.05786l19.649519 36.957245" fill-rule="evenodd"/><path stroke="#ff00ff" stroke-width="1.0" stroke-linejoin="round" stroke-linecap="butt" d="m5.355248 261.05786l19.649519 36.957245" fill-rule="evenodd"/><path fill="#000000" fill-opacity="0.0" d="m261.46133 132.70341l-19.64952 47.063293" fill-rule="evenodd"/><path stroke="#00c1ff" stroke-width="1.0" stroke-linejoin="round" stroke-linecap="butt" d="m261.46133 132.70341l-19.64952 47.063293" fill-rule="evenodd"/><path fill="#000000" fill-opacity="0.0" d="m283.2512 12.639736l838.6002 0l0 219.89922l-838.6002 0z" fill-rule="evenodd"/><path fill="#000000" d="m401.92307 85.13309l0 75.40625q0 19.015625 -12.671875 31.90625q-12.671875 12.890625 -30.609375 12.890625q-12.03125 0 -21.375 -5.265625q-9.34375 -5.265625 -15.90625 -15.953125q-6.546875 -10.6875 -6.546875 -23.578125l0 -75.40625l-7.625 0q-3.234375 0 -4.625 -1.234375q-1.390625 -1.234375 -1.390625 -3.28125q0 -2.046875 1.5 -3.4375q1.28125 -1.078125 4.515625 -1.078125l33.296875 0q3.21875 0 4.609375 1.234375q1.40625 1.234375 1.40625 3.28125q0 2.046875 -1.40625 3.28125q-1.390625 1.234375 -4.609375 1.234375l-16.65625 0l0 75.40625q0 14.9375 10.203125 25.359375q10.21875 10.40625 24.171875 10.40625q8.921875 0 16.28125 -4.078125q7.359375 -4.078125 12.890625 -12.5625q5.53125 -8.484375 5.53125 -19.125l0 -75.40625l-16.65625 0q-3.21875 0 -4.625 -1.234375q-1.390625 -1.234375 -1.390625 -3.28125q0 -2.046875 1.390625 -3.28125q1.40625 -1.234375 4.625 -1.234375l33.3125 0q3.21875 0 4.609375 1.234375q1.40625 1.234375 1.40625 3.28125q0 2.046875 -1.40625 3.28125q-1.390625 1.234375 -4.609375 1.234375l-7.640625 0zm118.709015 40.171875l0 -16.546875l21.15625 0q3.234375 0 4.625 1.296875q1.390625 1.28125 1.390625 3.328125q0 1.9375 -1.390625 3.234375q-1.390625 1.28125 -4.625 1.28125l-12.140625 0l0 90.125q0 9.015625 -3.859375 16.109375q-2.578125 4.734375 -8.59375 9.78125q-6.0156555 5.046875 -10.9687805 7.1875q-4.9375 2.15625 -13.203125 2.15625l-25.5625 0q-3.21875 0 -4.625 -1.234375q-1.390625 -1.234375 -1.390625 -3.28125q0 -2.046875 1.390625 -3.34375q1.40625 -1.28125 4.625 -1.28125l25.890625 0.109375q7.9375 0 14.328125 -4.078125q6.4062805 -4.078125 10.5937805 -11.921875q2.359375 -4.515625 2.359375 -11.5l0 -27.0625q-14.5000305 19.875 -37.390656 19.875q-18.578125 0 -32.0625 -13.796875q-13.484375 -13.8125 -13.484375 -33.265625q0 -19.4375 13.484375 -33.1875q13.484375 -13.75 32.0625 -13.75q22.890625 0 37.390656 19.765625zm0 27.171875q0 -15.890625 -10.9062805 -26.84375q-10.90625 -10.96875 -26.046875 -10.96875q-15.140625 0 -26.0 11.015625q-10.84375 11.015625 -10.84375 26.796875q0 15.90625 10.84375 26.921875q10.859375 11.0 26.0 11.0q15.140625 0 26.046875 -11.0q10.9062805 -11.015625 10.9062805 -26.921875zm90.88086 -43.71875l0 22.78125q17.609375 -15.90625 26.359375 -20.46875q8.765625 -4.5625 16.171875 -4.5625q8.0625 0 14.984375 5.421875q6.9375 5.421875 6.9375 8.21875q0 2.046875 -1.34375 3.390625q-1.34375 1.328125 -3.390625 1.328125q-1.0625 0 -1.828125 -0.375q-0.75 -0.375 -2.78125 -2.40625q-3.765625 -3.765625 -6.5625 -5.15625q-2.78125 -1.40625 -5.46875 -1.40625q-5.90625 0 -14.234375 4.734375q-8.328125 4.71875 -28.84375 23.09375l0 49.40625l39.953125 0q3.328125 0 4.71875 1.25q1.40625 1.234375 1.40625 3.265625q0 1.9375 -1.40625 3.234375q-1.390625 1.28125 -4.71875 1.28125l-70.78125 0q-3.234375 0 -4.625 -1.234375q-1.390625 -1.234375 -1.390625 -3.171875q0 -1.828125 1.34375 -3.0625q1.34375 -1.234375 4.671875 -1.234375l21.796875 0l0 -75.1875l-16.640625 0q-3.234375 0 -4.625 -1.28125q-1.390625 -1.296875 -1.390625 -3.34375q0 -1.9375 1.34375 -3.21875q1.34375 -1.296875 4.671875 -1.296875l25.671875 0zm168.75586 93.03125l0 -13.0q-19.65625 16.546875 -42.0 16.546875q-16.21875 0 -25.359375 -8.21875q-9.125 -8.21875 -9.125 -20.140625q0 -13.109375 12.03125 -22.875q12.03125 -9.78125 35.125 -9.78125q6.234375 0 13.53125 0.8125q7.3125 0.796875 15.796875 2.515625l0 -14.609375q0 -7.40625 -6.875 -12.890625q-6.875 -5.484375 -20.625 -5.484375q-10.53125 0 -29.546875 6.125q-3.4375 1.078125 -4.390625 1.078125q-1.71875 0 -2.96875 -1.28125q-1.234375 -1.296875 -1.234375 -3.234375q0 -1.828125 1.078125 -2.890625q1.5 -1.625 12.140625 -4.40625q16.765625 -4.515625 25.359375 -4.515625q17.078125 0 26.625 8.4375q9.5625 8.421875 9.5625 19.0625l0 59.71875l12.03125 0q3.34375 0 4.734375 1.25q1.390625 1.234375 1.390625 3.265625q0 1.9375 -1.390625 3.234375q-1.390625 1.28125 -4.734375 1.28125l-21.15625 0zm0 -44.90625q-6.34375 -1.828125 -13.4375 -2.6875q-7.078125 -0.859375 -14.921875 -0.859375q-19.65625 0 -30.71875 8.484375q-8.375 6.34375 -8.375 15.15625q0 8.15625 6.390625 13.75q6.390625 5.578125 18.625 5.578125q11.71875 0 21.75 -4.671875q10.046875 -4.671875 20.6875 -14.875l0 -19.875zm64.990234 -48.125l0 9.140625q11.5 -12.359375 23.09375 -12.359375q6.984375 0 12.25 3.703125q5.265625 3.703125 8.8125 11.234375q6.015625 -7.53125 12.1875 -11.234375q6.171875 -3.703125 12.40625 -3.703125q9.78125 0 15.578125 6.34375q7.625 8.15625 7.625 17.828125l0 63.046875l7.625 0q3.21875 0 4.609375 1.25q1.40625 1.234375 1.40625 3.265625q0 1.9375 -1.40625 3.234375q-1.390625 1.28125 -4.609375 1.28125l-16.640625 0l0 -71.21875q0 -6.875 -4.203125 -11.390625q-4.1875 -4.515625 -9.65625 -4.515625q-4.953125 0 -10.4375 3.71875q-5.46875 3.703125 -12.453125 14.546875l0 59.828125l7.53125 0q3.21875 0 4.609375 1.25q1.40625 1.234375 1.40625 3.265625q0 1.9375 -1.40625 3.234375q-1.390625 1.28125 -4.609375 1.28125l-16.65625 0l0 -70.578125q0 -7.203125 -4.25 -11.875q-4.234375 -4.671875 -9.5 -4.671875q-4.828125 0 -9.5625 3.125q-6.546875 4.40625 -13.75 15.140625l0 59.828125l7.625 0q3.21875 0 4.609375 1.25q1.40625 1.234375 1.40625 3.265625q0 1.9375 -1.40625 3.234375q-1.390625 1.28125 -4.609375 1.28125l-24.28125 0q-3.21875 0 -4.625 -1.28125q-1.390625 -1.296875 -1.390625 -3.234375q0 -2.03125 1.390625 -3.265625q1.40625 -1.25 4.625 -1.25l7.640625 0l0 -74.859375l-7.640625 0q-3.21875 0 -4.625 -1.28125q-1.390625 -1.296875 -1.390625 -3.34375q0 -1.9375 1.390625 -3.21875q1.40625 -1.296875 4.625 -1.296875l16.65625 0z" fill-rule="nonzero"/></g></svg>