<svg viewBox="0.0 0.0 960.0 540.0" fill="none" stroke="none" stroke-linecap="square" stroke-miterlimit="10" xmlns:xlink="http://www.w3.org/1999/xlink" xmlns="http://www.w3.org/2000/svg"><clipPath id="g8f8229113d_0_28.0"><path d="m0 0l960.0 0l0 540.0l-960.0 0l0 -540.0z" clip-rule="nonzero"/></clipPath><g clip-path="url(#g8f8229113d_0_28.0)"><path fill="#000000" fill-opacity="0.0" d="m0 0l960.0 0l0 540.0l-960.0 0z" fill-rule="evenodd"/><defs><linearGradient id="g8f8229113d_0_28.1" gradientUnits="userSpaceOnUse" gradientTransform="matrix(0.0 17.860517140012085 -17.860517140012085 0.0 0.0 0.0)" spreadMethod="pad" x1="7.701372997816836" y1="-35.805202102484344" x2="7.701308131465048" y2="-17.94468496259005"><stop offset="0.0" stop-color="#00c1ff"/><stop offset="0.82" stop-color="#4d00ff"/><stop offset="1.0" stop-color="#ff00ff"/></linearGradient></defs><path fill="url(#g8f8229113d_0_28.1)" d="m320.50134 137.5505l318.99683 174.64874l-318.99683 174.64874z" fill-rule="evenodd"/><defs><linearGradient id="g8f8229113d_0_28.2" gradientUnits="userSpaceOnUse" gradientTransform="matrix(0.0 19.41515819622953 -19.41515819622953 0.0 0.0 0.0)" spreadMethod="pad" x1="2.7365988794446316" y1="-34.43055203285089" x2="2.736528645709342" y2="-15.015393836748402"><stop offset="0.0" stop-color="#00c1ff"/><stop offset="0.75" stop-color="#00c1ff"/><stop offset="1.0" stop-color="#ff00ff"/></linearGradient></defs><path fill="url(#g8f8229113d_0_28.2)" d="m291.52625 53.1315l376.94702 189.57506l-376.94702 189.57506z" fill-rule="evenodd"/><path fill="#000000" fill-opacity="0.0" d="m291.52625 53.1315l0 0" fill-rule="evenodd"/><path stroke="#595959" stroke-width="1.0" stroke-linejoin="round" stroke-linecap="butt" d="m291.52625 53.1315l0 0" fill-rule="evenodd"/><path fill="#000000" fill-opacity="0.0" d="m291.52625 53.1315l0 0" fill-rule="evenodd"/><path stroke="#595959" stroke-width="1.0" stroke-linejoin="round" stroke-linecap="butt" d="m291.52625 53.1315l0 0" fill-rule="evenodd"/><path fill="#000000" fill-opacity="0.0" d="m291.52625 432.28162l29.029266 54.584534" fill-rule="evenodd"/><path stroke="#ff00ff" stroke-width="1.0" stroke-linejoin="round" stroke-linecap="butt" d="m291.52625 432.28162l29.029266 54.584534" fill-rule="evenodd"/><path fill="#000000" fill-opacity="0.0" d="m668.47327 242.70656l-29.029236 69.51085" fill-rule="evenodd"/><path stroke="#00c1ff" stroke-width="1.0" stroke-linejoin="round" stroke-linecap="butt" d="m668.47327 242.70656l-29.029236 69.51085" fill-rule="evenodd"/></g></svg>
