<svg viewBox="0.0 0.0 960.0 540.0" fill="none" stroke="none" stroke-linecap="square" stroke-miterlimit="10" xmlns:xlink="http://www.w3.org/1999/xlink" xmlns="http://www.w3.org/2000/svg"><clipPath id="g8f8229113d_0_40.0"><path d="m0 0l960.0 0l0 540.0l-960.0 0l0 -540.0z" clip-rule="nonzero"/></clipPath><g clip-path="url(#g8f8229113d_0_40.0)"><path fill="#000000" fill-opacity="0.0" d="m0 0l960.0 0l0 540.0l-960.0 0z" fill-rule="evenodd"/><defs><linearGradient id="g8f8229113d_0_40.1" gradientUnits="userSpaceOnUse" gradientTransform="matrix(0.0 12.957909111724575 -12.957909111724575 0.0 0.0 0.0)" spreadMethod="pad" x1="15.483719228655332" y1="-20.443679184207408" x2="15.483671755141279" y2="-7.485770072569795"><stop offset="0.0" stop-color="#00c1ff"/><stop offset="0.82" stop-color="#4d00ff"/><stop offset="1.0" stop-color="#ff00ff"/></linearGradient></defs><path fill="url(#g8f8229113d_0_40.1)" d="m96.99992 200.63661l167.90675 91.4644l-167.90675 91.46442z" fill-rule="evenodd"/><defs><linearGradient id="g8f8229113d_0_40.2" gradientUnits="userSpaceOnUse" gradientTransform="matrix(0.0 14.085809640194698 -14.085809640194698 0.0 0.0 0.0)" spreadMethod="pad" x1="11.10521651172065" y1="-19.8894260802711" x2="11.10516556088819" y2="-5.803616440168552"><stop offset="0.0" stop-color="#00c1ff"/><stop offset="0.75" stop-color="#00c1ff"/><stop offset="1.0" stop-color="#ff00ff"/></linearGradient></defs><path fill="url(#g8f8229113d_0_40.2)" d="m81.748634 156.42596l198.40933 99.28139l-198.40933 99.28139z" fill-rule="evenodd"/><path fill="#000000" fill-opacity="0.0" d="m81.748634 156.42596l0 0" fill-rule="evenodd"/><path stroke="#595959" stroke-width="1.0" stroke-linejoin="round" stroke-linecap="butt" d="m81.748634 156.42596l0 0" fill-rule="evenodd"/><path fill="#000000" fill-opacity="0.0" d="m81.748634 156.42596l0 0" fill-rule="evenodd"/><path stroke="#595959" stroke-width="1.0" stroke-linejoin="round" stroke-linecap="butt" d="m81.748634 156.42596l0 0" fill-rule="evenodd"/><path fill="#000000" fill-opacity="0.0" d="m81.748634 354.98874l15.222786 28.586182" fill-rule="evenodd"/><path stroke="#ff00ff" stroke-width="1.0" stroke-linejoin="round" stroke-linecap="butt" d="m81.748634 354.98874l15.222786 28.586182" fill-rule="evenodd"/><path fill="#000000" fill-opacity="0.0" d="m280.15796 255.70735l-15.222778 36.403183" fill-rule="evenodd"/><path stroke="#00c1ff" stroke-width="1.0" stroke-linejoin="round" stroke-linecap="butt" d="m280.15796 255.70735l-15.222778 36.403183" fill-rule="evenodd"/><path fill="#000000" fill-opacity="0.0" d="m297.0389 162.83884l662.9608 0l0 173.51419l-662.9608 0z" fill-rule="evenodd"/><path fill="#000000" d="m390.4608 220.85905l0 58.04686q0 14.640625 -9.765625 24.5625q-9.75 9.921875 -23.5625 9.921875q-9.25 0 -16.453125 -4.046875q-7.1875 -4.0625 -12.234375 -12.28125q-5.046875 -8.234375 -5.046875 -18.15625l0 -58.04686l-5.859375 0q-2.484375 0 -3.5625 -0.9375q-1.078125 -0.953125 -1.078125 -2.53125q0 -1.5625 1.15625 -2.640625q1.0 -0.828125 3.484375 -0.828125l25.625 0q2.484375 0 3.546875 0.953125q1.078125 0.953125 1.078125 2.515625q0 1.578125 -1.078125 2.53125q-1.0625 0.9375 -3.546875 0.9375l-12.8125 0l0 58.04686q0 11.5 7.84375 19.515625q7.859375 8.015625 18.609375 8.015625q6.859375 0 12.515625 -3.140625q5.671875 -3.140625 9.921875 -9.671875q4.265625 -6.53125 4.265625 -14.71875l0 -58.04686l-12.8125 0q-2.484375 0 -3.5625 -0.9375q-1.0625 -0.953125 -1.0625 -2.53125q0 -1.5625 1.0625 -2.515625q1.078125 -0.953125 3.5625 -0.953125l25.625 0q2.484375 0 3.5625 0.953125q1.078125 0.953125 1.078125 2.515625q0 1.578125 -1.078125 2.53125q-1.078125 0.9375 -3.5625 0.9375l-5.859375 0zm91.34778 30.921875l0 -12.71875l16.296875 0q2.484375 0 3.546875 1.0q1.078125 0.984375 1.078125 2.546875q0 1.484375 -1.078125 2.484375q-1.0625 0.984375 -3.546875 0.984375l-9.34375 0l0 69.374985q0 6.9375 -2.984375 12.40625q-1.984375 3.625 -6.609375 7.515625q-4.625 3.890625 -8.4375 5.546875q-3.796875 1.65625 -10.15625 1.65625l-19.6875 0q-2.484375 0 -3.5625 -0.953125q-1.0625 -0.953125 -1.0625 -2.53125q0 -1.5625 1.0625 -2.5625q1.078125 -0.984375 3.5625 -0.984375l19.921875 0.078125q6.125 0 11.046875 -3.140625q4.921875 -3.140625 8.140625 -9.171875q1.8125 -3.484375 1.8125 -8.859375l0 -20.828125q-11.15625 15.296875 -28.765625 15.296875q-14.296875 0 -24.6875 -10.625q-10.375 -10.625 -10.375 -25.59375q0 -14.96875 10.375 -25.54686q10.390625 -10.578125 24.6875 -10.578125q17.609375 0 28.765625 15.203125zm0 20.92186q0 -12.234375 -8.390625 -20.656235q-8.390625 -8.4375 -20.046875 -8.4375q-11.65625 0 -20.015625 8.46875q-8.34375 8.468735 -8.34375 20.624985q0 12.234375 8.34375 20.71875q8.359375 8.46875 20.015625 8.46875q11.65625 0 20.046875 -8.46875q8.390625 -8.484375 8.390625 -20.71875zm69.957184 -33.64061l0 17.51561q13.5625 -12.23436 20.296875 -15.749985q6.734375 -3.515625 12.4375 -3.515625q6.203125 0 11.53125 4.1875q5.34375 4.171875 5.34375 6.3125q0 1.578125 -1.046875 2.609375q-1.03125 1.03125 -2.59375 1.03125q-0.828125 0 -1.40625 -0.28125q-0.578125 -0.296875 -2.15625 -1.859375q-2.890625 -2.890625 -5.046875 -3.96875q-2.140625 -1.078125 -4.203125 -1.078125q-4.546875 0 -10.953125 3.640625q-6.40625 3.640625 -22.203125 17.76561l0 38.046875l30.75 0q2.5625 0 3.640625 0.953125q1.078125 0.9375 1.078125 2.515625q0 1.484375 -1.078125 2.484375q-1.078125 0.984375 -3.640625 0.984375l-54.484375 0q-2.484375 0 -3.5625 -0.953125q-1.0625 -0.953125 -1.0625 -2.4375q0 -1.40625 1.03125 -2.359375q1.03125 -0.953125 3.59375 -0.953125l16.78125 0l0 -57.874985l-12.8125 0q-2.484375 0 -3.5625 -0.984375q-1.0625 -1.0 -1.0625 -2.5625q0 -1.484375 1.03125 -2.46875q1.03125 -1.0 3.59375 -1.0l19.765625 0zm129.89465 71.593735l0 -10.0q-15.140625 12.734375 -32.328125 12.734375q-12.484375 0 -19.515625 -6.328125q-7.03125 -6.328125 -7.03125 -15.5q0 -10.09375 9.25 -17.609375q9.265625 -7.53125 27.046875 -7.53125q4.796875 0 10.40625 0.625q5.625 0.609375 12.171875 1.9375l0 -11.25q0 -5.7031097 -5.296875 -9.906235q-5.296875 -4.21875 -15.875 -4.21875q-8.109375 0 -22.734375 4.703125q-2.65625 0.828125 -3.390625 0.828125q-1.328125 0 -2.28125 -0.984375q-0.953125 -1.0 -0.953125 -2.484375q0 -1.40625 0.828125 -2.234375q1.15625 -1.234375 9.34375 -3.390625q12.90625 -3.46875 19.515625 -3.46875q13.140625 0 20.5 6.5q7.359375 6.484375 7.359375 14.656235l0 45.984375l9.265625 0q2.5625 0 3.640625 0.953125q1.078125 0.9375 1.078125 2.515625q0 1.484375 -1.078125 2.484375q-1.078125 0.984375 -3.640625 0.984375l-16.28125 0zm0 -34.5625q-4.890625 -1.40625 -10.34375 -2.0625q-5.453125 -0.65625 -11.484375 -0.65625q-15.140625 0 -23.65625 6.53125q-6.453125 4.875 -6.453125 11.65625q0 6.28125 4.921875 10.578125q4.921875 4.296875 14.34375 4.296875q9.015625 0 16.75 -3.59375q7.734375 -3.59375 15.921875 -11.453125l0 -15.296875zm50.019653 -37.031235l0 7.015625q8.84375 -9.5 17.765625 -9.5q5.375 0 9.421875 2.859375q4.0625 2.84375 6.78125 8.625q4.640625 -5.78125 9.390625 -8.625q4.75 -2.859375 9.546875 -2.859375q7.53125 0 11.984375 4.875q5.875 6.28125 5.875 13.71875l0 48.54686l5.875 0q2.484375 0 3.546875 0.953125q1.078125 0.9375 1.078125 2.515625q0 1.484375 -1.078125 2.484375q-1.0625 0.984375 -3.546875 0.984375l-12.8125 0l0 -54.812485q0 -5.296875 -3.234375 -8.765625q-3.21875 -3.46875 -7.4375 -3.46875q-3.796875 0 -8.015625 2.859375q-4.21875 2.84375 -9.59375 11.187485l0 46.0625l5.78125 0q2.484375 0 3.5625 0.953125q1.078125 0.9375 1.078125 2.515625q0 1.484375 -1.078125 2.484375q-1.078125 0.984375 -3.5625 0.984375l-12.8125 0l0 -54.328125q0 -5.5312347 -3.265625 -9.124985q-3.265625 -3.59375 -7.3125 -3.59375q-3.71875 0 -7.359375 2.390625q-5.046875 3.390625 -10.578125 11.656235l0 46.0625l5.859375 0q2.484375 0 3.5625 0.953125q1.078125 0.9375 1.078125 2.515625q0 1.484375 -1.078125 2.484375q-1.078125 0.984375 -3.5625 0.984375l-18.6875 0q-2.46875 0 -3.546875 -0.984375q-1.078125 -1.0 -1.078125 -2.484375q0 -1.578125 1.078125 -2.515625q1.078125 -0.953125 3.546875 -0.953125l5.875 0l0 -57.64061l-5.875 0q-2.46875 0 -3.546875 -0.984375q-1.078125 -1.0 -1.078125 -2.5625q0 -1.484375 1.078125 -2.46875q1.078125 -1.0 3.546875 -1.0l12.828125 0z" fill-rule="nonzero"/></g></svg>
